<mxfile host="app.diagrams.net" modified="2023-08-17T05:00:30.038Z" agent="Mozilla/5.0 (Windows NT 10.0; Win64; x64) AppleWebKit/537.36 (KHTML, like Gecko) Chrome/109.0.0.0 Safari/537.36" etag="cuf2UmfkGLPJsyMTQ2p2" version="21.6.8" type="google">
  <diagram name="ページ1" id="Tvq7KEXZkjURDqqnZdsm">
    <mxGraphModel grid="1" page="1" gridSize="10" guides="1" tooltips="1" connect="1" arrows="1" fold="1" pageScale="1" pageWidth="1169" pageHeight="827" math="0" shadow="0">
      <root>
        <mxCell id="0" />
        <mxCell id="1" parent="0" />
        <mxCell id="hZGOe5JVMsw1D21I9RBg-1" value="" style="rounded=0;whiteSpace=wrap;html=1;strokeColor=none;fillColor=none;" vertex="1" parent="1">
          <mxGeometry width="40" height="40" as="geometry" />
        </mxCell>
        <mxCell id="hZGOe5JVMsw1D21I9RBg-2" style="edgeStyle=orthogonalEdgeStyle;rounded=0;orthogonalLoop=1;jettySize=auto;html=1;entryX=0.5;entryY=0;entryDx=0;entryDy=0;strokeColor=#000000;strokeWidth=5;exitX=0;exitY=0.5;exitDx=0;exitDy=0;exitPerimeter=0;" edge="1" parent="1" source="hZGOe5JVMsw1D21I9RBg-21" target="hZGOe5JVMsw1D21I9RBg-5">
          <mxGeometry relative="1" as="geometry">
            <mxPoint x="307.5999999999999" y="170" as="targetPoint" />
            <mxPoint x="519" y="50" as="sourcePoint" />
          </mxGeometry>
        </mxCell>
        <mxCell id="hZGOe5JVMsw1D21I9RBg-3" value="&lt;code style=&quot;border-color: var(--bordercolor-inline-code,#abb4bd); box-sizing: border-box; overflow-wrap: break-word; padding: 2px 4px; border-width: 1px; border-style: solid; border-image: initial; border-radius: 4px; text-align: left; background-color: var(--bgcolor-inline-code,#eff1f3); font-size: 14px; font-family: var(--font-family-monospace); color: var(--color-inline-code,#bd0039); outline: none !important;&quot; class=&quot;code-inline&quot;&gt;Objective-C Bridging Header&lt;/code&gt;&amp;nbsp;=&amp;nbsp;&lt;br&gt;&lt;font style=&quot;border-color: var(--border-color); font-weight: 700; font-size: 14px;&quot;&gt;&lt;br&gt;$(PROJECT_DIR)/$(PROJECT_NAME)/&lt;br&gt;Metal-Bridging-Header.h&lt;/font&gt;" style="rounded=1;whiteSpace=wrap;html=1;shadow=1;fillColor=#f8cecc;strokeColor=#b85450;" vertex="1" parent="1">
          <mxGeometry x="50" y="80" width="300" height="80" as="geometry" />
        </mxCell>
        <mxCell id="hZGOe5JVMsw1D21I9RBg-4" value="" style="group" vertex="1" connectable="0" parent="1">
          <mxGeometry x="160" y="200" width="80" height="120" as="geometry" />
        </mxCell>
        <mxCell id="hZGOe5JVMsw1D21I9RBg-5" value="" style="shape=image;verticalLabelPosition=bottom;labelBackgroundColor=default;verticalAlign=top;aspect=fixed;imageAspect=0;image=data:image/png,iVBORw0KGgoAAAANSUhEUgAAAIAAAACACAYAAADDPmHLAAAgAElEQVR4nO19B5wdVdn3/8zMrXu3ZLPZJBsSSMNQhGBCfhRBmgXCC9iQF5GivHzYEBQ+FXyl2ODlFaVIrwFBQYqKCgR5lSZFitQPCAQDKZtsdrPt7m1znu93zsw5c2b23rslu5td331+mey9d9qZ8/RynsEkTMIkTMIkTMIkTMIkTMIk/C8DVulxe1ccWPZ3RgCyRSQ25MDnJsGKcVB9ASxng7gLRnmQZYMVHcABGLfB43y6RdiBERaQhXkcvAUxZzpKNBU2MgCSYCwBgg0iR96GwCA2kPrn/Uf+QCj4GPqNSH9mSQt2xgqft82AOEjMHrlgKIEjDyCHEnpgs3YUS+stYuuZy94hhlUc9K5VYK1kc1CBQIkSLM5BSIBZNijpgnXGQbEirNV9yM9IID41BitW/lmtT/2l7IM7Iz4dcrLF7GMhGA6lGnYwY9YCDsyBxTIelmyAExBj3l85PQFGmXoALq8jL6eQSNGHU0g3fpfHcIB6uPxup61xQAA+rzGPpmH5P8eZ9xBODFzuYICLHka0hhJYhT7+ZzD2JxC9pXaPJIwsARAx2NYhsO0TKeMczkB1IeS4ijt9bPLwV3j4DrjY4xv/QwT5PuKZOSP+Meo4scftcgXPwakVEz/CszccMKRV6AMZOyxkCNgZwM6s1j4CZP0AOX4/XPcWlGjlSMqzESQA2o/F7W9S3DkcYI7gXi22YTwgRZ+ZQtwdwnFkshTCTaISn/VlNCF5lOQLF7g9QjUZ6mACgTdcXscS8WOJ6GiWp/vh0iUAHhuJp9h6AiA2FYydgyT7GjHEPK42MNyP4vvrckQYgqLHc+PUEPLLnENKpYTvV+xy5XXs2olHBBK853IowY5iwHKAXQFiPwKweWsuO3wCEOLcoqWU4b8AWcs8vWsq4nLiLkASlTHi+ol4Qzro38oRjk900fOhCMYnBkEEnAixOjtEVBMKvCmJgVlnUIbvixJ9FS79fbiPYA3imP4gVGlD7EjmWPcjxpdJxHMDWdzfyPhL3jFcbCbH8jKIFeqDU+g6gqOJhwlLG3tEYWng30BfQ/3OgFKni2KH61kONIE38VxxWsZi1v1oiB0xXKFWUQJQwg6+MJ+7ixzMBayk9WmamriJSqhF0TDYfKwy09jydbTJnRThaksd43sAehc3jkNwvLiAqWn0Lh62DaJSRBFdobPksVG9FVxzIkKJQBamY4fEbVY3PwlEd0svI2553sbWEIDzclsYY4k4MLsGLE6fshlupiJlQpPnW/CepR1BuokAdSwFxMF998byGTZEIKFzjOND142oChiSAAHitcsIIN9ZAnEbiQa7/P0mEJBLtbEEu5lZ4Oije/FmF5AvDooIKh5BC9PBl5ILTJ8CnLDjYrcJD1MBU03km8GXsOUPGc2RYloPhgKxbgxAuW/kI1r+xpj+rNQEZ8b1edhlDI6j/mqFIseKa7mERL0gAqd/fGECAouhjW3ER60Vb76I1g7ACfibreot+0BVjEDT9OZAijW4Ket6KvGpIc6Lciz3kR4lBIq4hSbiuSIGCoJACIxFU4IwDmnIlRuuSYj6bxTx+p7eb7kOV35P/gsQAbloQsa6Hil2CMC3SH09AFQmgM8e7H9gQKEEXrv+PErTEvSRlPIEhVSfS8tZ1WUid6SDPZGwbfRUZcCxMC2GvDsyRL9xH84jhIAwIXjnefEE8Sy5Ds8m8IiA+hHphAHBBGks4Qc2n2d17346YgZ6f3J/2aeoSADFeU3eB4vDTvIPk5X7KvpcjVTFqQxlJqyMn645mJShT2Gk+9ckQ4SHrhV4e/q4/kYgghup31TwyAhMGZaBHkOuvSh0KVKNzsQ1B8TA+1zQoilf5W7Tb8ilxwcKHVckgN7170ousVNFJzXdPQuIOwoxLDrx0S+KcxVnaxEfRO60G6aO893DcsREflSPGbo9ek9ejnO1CuAecbAIUUakiCACcUBqamxCG4aUdx3O3z7LLRT+JiI21Y6tSABxxzO3bWYfZME6jFxP+Oo4uzE5LKKnFaeF9bn/l3s4Z+a1lGVfAYHiHCui35lxH+7bDvp0U32QiezguiEpY9gPfW1FSSw1TfH+BuZEAts5LN7DDmJ5rIRdedwVCSD97jqIE/luTV/k3HaU2GdlEK7xZSDHRKLJZdF9kEFFXxwbOGYmV5dVMR7SXTKlCXmcrtw/6ndKYLyGkkwUJJYY0Le5KHfVTPFS3F6OdWIBIzhUgy+xt9pWVpMBlQNBaSF3sZAca7m4ACMD8VGMR9FOZbgsdIpv8/Mw4hUXlzXEKLAgBZKZrxqYrxq49jJYcKr/QeI6mpxC4AkEWUl/PAzItmbBknNR02iBb3kHiGUGHVwZFyCQHmPLEcNCJPBWpSFVDgUvaQLtNm05iGXkxRRnKWedB/aA4B2JAB7eAkPO4zCuQsbcyyUIl47xgLi4OiYUNFLneNzNS8H11HjEOaFMoLJDfJeReESSGGFiOWYK7kk+MQlk96zbjML842EtOArI9QDFPLQLNBE2xjK0R/NyLG2qiObKBBAnBgcHCglI5sRGNs5lJCqI27ueQacMO6Yn2kO2Rk7EUuemz68IxQ2CRkqiMJVIIs/d44qzoXS5fx/u2QbgRnjZJzyxkTI6zOfxicybPBvU04qux+4C7fNtWB+5AHDqgVx38KzjfRO4c+hAHq9cCFGRANweq5kX2EKpFokC5BnzxvWEe4hmPoKgAj/cP8ZEvtK5Sh34k651d4RbyZAsWnX78WJTryvkK2KThiFngcvo+lLEsC3U+BUxBecLwuKgeA3yb/8NvQ9dCbbzEbD+7RqgeSnQ1ynCiBNDGhTYwlKP1TxkAuBFNhcubW9xCnOuEsf+hDLeXzKIiQ0kh3FRUogGmFABLvlIiPh2vohWkkULH0Uw8DnV9ancDROZ4nyVffQ43lcHStzrZwruHVIH/titZAZdf70FhVXPgjXNg/Vvl4HtdhJQyANu3vctxzEBuLQ9E7gcKgE4ten5zOXpkN73xS+PiHDGg3RtaF9UnLtKUviICiGkkv1gpod98e8GhAQKbAglLRS3c41Mj2iUt8DNeylJwAPEc4OoRYErL/Si80+/ABXzYPEUrP3PANv/ewDFgXxPQJ3jceOUdurS84dMAOz9rvmwgopaydUhzoEMNTOD00P5etfQ4VGiUOf7OlmHfbVe8c1ybaSV0bX9JIsyBknfRqsGQ/pwk7j0+b5KiuQTPHdR5I1rkH39cWSf/UMwcR/8JKzDfgokpgH53vFrD1gWaGP30AmAw5qpCy24l6rVVjs3fHYtLgmWtvKjAQL043KXAg61fDdTIj/eAFgpoFAIrq0t+mh4WVyLy81ELBlSQxqOrkdo4WN8aaIIh5eTRooWbVmKveWha8CzXQGTzFkGdsSlQMM8INeFcQny+a2ZQyYAlsEMVvR1bLQax0AofONPISi6v5xY14EXbvr+Iu3MgVIJ1vyDQHZGilwvaRPJNfnIMm0EFfUjZelHjE5dQKKkCg+Q349IlSRX9ocgTCeJwto30PPEXeEJbF4E6/CfA827eh7CeLMJxFykacaQCYDnqLF/Jq8/QrXUNo4NIdzg2OB8X/wrCaKkBrOB7Gagcw3iB3wFxOLgxZxXS6BEu+ZUCl1eG6au6dMrFzMwPINxGepC6/8ghkARO0Hus2PoeuxXcLvazGkBm7IdrMMvAZuxB5DdMr5sAjGUAjUOmQAQYxklczVCFdJgxILKcHs5/ayKM5UkYabONTBJdhLFt54AdW9C+jMXQgQjUMh557phN1HfUyDWDd1SExtXXofvPUjNrlxI5UlQ2AjU+6Hn0HN3Yynk176J3uce6jddrG4G2PL/Aqbv5kmC8eIiCgkeszJDJgDiSFYqxFQbiyLd5B6TcMRtXA4qlTT1cEPnhq4tVEo8jfyjN4LF0kj/+89FNANU6DMQHxhzBqH71zALSknHKDxJz/QYPdWmxunbGDwcVVRj1PaCnDEHnY/dCRJuYJQIapthHfZjoHF+QATjwBBkHMkhEwA4JXU2zb8QuZ4YtXx3Thloyg1jhjsV6GCS6Vi07AFy0iAh0tXEaB3tSwNffIvaJoGh7G++B3vOB1Fz7CVifReQ7/NyCBTW8R7mA92OCFFSZD+Z41TINsrKtcgPmEFLQuak0Lf6JfS+XH5dBpuyPazDLgQy04Fi38iv5RoqMB+XFaAyAbhioabhxytjz5ACYr/FjdArUYgYJEEQA8/ngGIW8YO+DhavA/JZz7gzLXATYSJ/H0vB7ViD7K/PhrPT/sgc93MgXgs3262rjsOINZBPYeLSASw3jFwyRX4E+SHVRmGbh7kldD9TvsJGAGveEdbHzvOyiCVfUmxLNcCpYkK4mgRwlEHlfTe8AcMd1JPGKeQmKoKQboiTgPvP58Db30Pi81eApZtB2e5wpNA0zLjnEbB4BsWXViL35+vhfGBvZE64FHbdDPB8j3daKYg1kH8xfTmD04MwMoU4W90vOCdQH2QYjKYhKE934si++gQK61dXJoK5+4B95EygWABcN6w7x3obFgGYY+QIcRX0ZAQROqUK+h3vE4Tl1KD06E2gnnYkT7kZbMaOoGwntI9nJGJIRx8tsEQauZVXofT23+HM3xO1J14Ba8pcUNcWn05Nnz4iESggYI4Iol0j8WPqfzOYRGE3UUcj7TgK7RuQffnRitMnJ3fxZ8AWH+NlErelBKiih6qoALLKRvEUtxlGRjDxgc6Vx7iGMcIsMGYhd8+5Elnpk6+Hs3B/UHen9CNNkRsiMhYDz2fR8+tzwTs2wJ6zC2pP/gWc2bujlO3y8gLGuLQqMAkZho1RMsaE8HkhY9Q0LpU7yYP5FKqt+4X/qUoA8sj9vwa0LAmIYFsYglUKQgZcGmZyOkUsd4r4/xppPGKkKS5zkuDdm5D75ZmAnUD6+Mvg7HUMeLZHikoyEK+IgcvoYA1K699E733/JW/jTJ+LulOuQmLH/cC7O4weA1Gk+dcQHggPVIUW5350sH+EMBzv4Fo6BcezeBJ9776CUvv66gSQrIV1yFlArBYoFreVFKiI52puYDjPX4U7AmQZYtXYB71P6PUauO8+h767zgXF4kgffQGSy8/y9hdz+l5h4iKwVB3yf/89+lbe4A28oRn1J1+G1IeOBPV0gZfc4J7aa1FFKP1tDRVhJN9wDdxX85ioygueR0i0Qnsrel97pioBSCJo2RVs31MB8XzR6No2hqo2gP6o3TTTt1TFHobvbJ5geA+cSGtg6SGk61F8/nfIP3Cl/C1x8JdQc9wlQLIevLcr5FEQGf58LImeP1yGwqueC8ZSGdSdcCFSB58M3tcjw8hmFE+ViZmGoSJSrgJD5Bt8/SSd/xjG8+n9iglcF9m3XhgUBq2lnwOb+2E/PhD2rkZ/qzKuivinsNVvIl3VACg86wdyI1U8UAEj7zvT12JAogb5h69B8YU/yeNiux+C2lOugb3dLnB7O3Volxnxfm7FwIt5dN3+ffDN6zwiiCdRd/R3UXfUt0H5Aki4nMTghig44PAQRZihYdOW0RLIdA/DasKbPQvZ1a+ChKU/EDhxsAO+7tUWumOtCipLnaoSQCLbDap9zH2KO/pl/0yxaeTw5WS7KnTLZYhXTGTvb36I0nuvyVPt2bsgc+o1SCw5AtTTCXKLXr0hD+5lxdNwN61B5+3ng0SI2IfMoaeg4fifALEkXD8pE4SDDWseqk7QMDxBfn8eJfmNEjWE7YYgOiicFAf5je+h2L5hYAKQqmBnsD0+C/RlPSYYS0NwqATAzBiASRfGRIT2R/IBodh61ChU0bx4CtTVht7bvwfq6fAGVN+MzBcvQfqIM0EuA89lg9W//gBYqha5Fx5C928vDY0tte+n0PiVK2FP2Q68u1OWhJkc7xEtD3S9Eg6ReIbpRYTTxqZ2IxkWLnW2odC2bgDUG/O69/FA41w/SrjtoYoEoNBHoiAZE27cRP3cKH1eNA2sN9K5BJbMoLT6H+j59QWAWwqQediXUXvSf4PVTAUZOXiFAEEEPQ9dj9zTvw/dM7HT3mg6/QbEtt8dbk+HNwYoouX98gbcJf3ZLB3X3G4ah6b4J8+1dXN9KG5YM3gCqJ0GtvRYoFQcu4BQFahuBJoZOMMjIBO5ERETNaTMy+mAj2EPyAiisPCf+R2y918eRuaHPoaGb9yE+MK9wXu2SHdOl5yJaiVRpPHL81F46/nQebGW+Zh+5o1ILzsSrjAqXVdzOUxO14Uo4vn89QRuEJTSYWD/CfRnrTpE7WMJ+dZ/DpoAJBEs/SQwfZEnBbZxqqCKG9i/TQtURC3C7Wq1kE62RIMo2hbwsnJMi1JFJBasVAbZB69B39PhGLszayHqv3Ilkgec4KmDQp9eVGKJfEHPFnTcdA7cjtbwg9U2oumUi9Gw/MuSS0VdgerRZ4p5be0zY52BmQE0jF0ynkfGJ3zDMdc2OBtAz1c8BfahT4MKpXCwbDzZACFrWYlLf1KYnwTSx3GEjCbTCAxV9qoAj29okbY1hBFmy+H03nEeim88G56wdB3qjzsPDSddDCZcxZ4uaekLiYB4GsU1r0oiMI1C+B7ClGO+g+b/cwmYk4bb2yOrlU1rXm0iQkguQiFjU8Vpd9F0EeXPDKVIgchggO36CbBpOwJGmntUtyETgDkJRjzcMsqvg0ygX+WjlnmZQSSDSPTyMnW8ahzJvXpCFkuAZzvRffN34W7sr1dT+xyFRqHf5y2B29Xu1ReAwaqpR9/zK7Hlrp+VfYTMvkdh5jevQ3z6fLg97b4VEiZKsxOJFz4N2D5k1PIgSCR/s5gkLOJV2KwMsMwUsF0/ClYo6OVto7UNyw2MZtK8FT9RNy8sTmWFsEthQyl6vKvqAQ1poDjR5bBk2HcVum76LkgEdyIQn7srpp55I2oOOcnzv/M5CKcSyRp0//FqdD90W9nnSe20DC3fuQWZJYei1N0JtxD44oqrdSTTIF6z/FyNUyWg/KeGm88PK8LHdj8cVDNt9OMCVaC6F8AjF4m4ekHQh8BKCC/vokD/BBY4hbt2hdxFZVURWE09Cq8/ia5bzys7scJemHLi+Wj80kXSgOQ9nV49YSyJ9jt+hL4XyydpnGmzMOP0K9B45NdB+by0DTyXNFgroPMKCCqCNLeroRv2gQ4wDTTT5QigaQ7Y/L0AMY7Rrh6qAINSAUqkU79qW2MSjNIq86ZqwkKXNGPr2gULR+JEEqXvr3eh++5LKg4tvd+nMO3bK5BYtC/crg7pFXC3iNarv43Cmv9X9hwrkcK0476DltMug5WuR0kEnAim5peE7FLYJTTHHRCsIoStMOV3PgjeOvyhqZAhwXBsAFMFmGFQb6e5qkeJxP43Ij/iFkgEs37An0AeRr782fUnNZVB9++vRu8jt1d8gNj2O2Hat65Fw1HfkAkhKrrSI2i9/JsotVXO1NXtdyS2//7tSC1cilJXh4zrCy8hkGKR2oB+6wb83IJQW7GYTHUPB9gOHwI1zvZXHo9GDCCQakMigJD7V0akM7MABFG9YxaEBkGWqPTgWnpEJIriMMsBbBtbVlyAvuf/XPkh0hk0/PtZaP7mtXBmzJfIzL39AlqvOstLElWAxNydsf33b8PU5SKZlIWbz8F7TUF4NZIOJiH4DN+U5NyFla7x4hLDIYD6ZrAdlgClwujof2W0Dp0AIrVwRoWsmgHuTwjMYJEZ84/EEjRhGsGgssjXUkF0woxJa7/j2u+gMEDmLb34I2j53i9Rd/DnvRr+v92P1uvPAxkRxn4TUFOLllN/hFlfuwRWqh7F7o4gAmjGA8pVDPt5Dad26mBwXRnm7+m9Q0HN7RgagoOSABQVIWoy3DKGouJ4gwL1V6J+HB9QaaAmlAQgb0mv1Nu8qw1tl5+BkmheVQWcqdPR/OWLMP1rlyIxeyd03Hcl2m7+0YA4aPzoMZh37i9Ru/M+KHV1aqJRxiA3xqwNWn9LNM8aFt4VSDWQavAaco6GATgsAjAs/6BDh8r/I1z4oQ41gkXR4st+wSAjRmDW4qljuBee0wTIEhm4699G22XfgNsejvqVg7qPfBKzz/81Gg75PFp/9TO03XX5gOekFuyK+eeuwMxPf02mlku53mAdiu5yEuQTZDQQFpItOwx47WrApswEmrb3K4ZGaUFJBaiuuIygB1QbF17melqnh2MApHz/iJ0QWP++dPF77+gl3v4dtLZVhJOuR+7N57Hp0m94hSMDQGzGHLR89zps9+2rsfm+69B+9y8GPMeqqcOs/zgX886+HvHp81AUBqI/YDOlLIlBrGNM1iDZMm94mNc3tcFm7eIlw8Y4N1DVBggwF5LOwQ/KC1DlXhFrX1flGHpff1abYWG7xP1S8rBPbCaYRFg4+9KjaLvqO35eYGBoOOQY7HDRPeh79w1seeRur/PXANCw76FYdOGdaDrwsyh1d6Mkcvg+oXJfCvJiEfHG6UhO3zoVIGHWIr2CaiwzglUrghSiQ9fhZdb+SzQyIzACLcqYG0gBU9+HAkagoPdApHInJEX8QQn/vfux+7Dx2nNBxeKg5jex3QK0nPEzOPWNg1IhAuLTZmHB2VdjwbcuRayhGYXODriuof9LJdTMXYTY1OmDul5VaJ4LOCld1rbNA0FWjMF1PQ7Wfn6k+scsBCXVQUJ7DVx7ErqiyKjTg6lX/Wub/Qf1sbpHgemNMFjpOnQ9cCs2r7hw0HMs1vhnlhwIp7HiaumyMO3QY7HrxXdj2v5HoNTThVLOkwbCA6jbaamsC9haELkBStaObkCoDFQceTzGEIsxvxA0WHatIKTXuWHkIeDUkOSJ2gFG6jiw/JXBGCDdzMmH9oskULoW7fdchc23/GRoEzcMnz05eyEWnX8LFp15GZJN26HQvgmOCEkvO2jI1yp/g4yMfkoVMIYSoHKjSDGmuC3DcoWC0dhZG2oIQqFqZyhIYiCdhUV4YAT2jzKahMWNe8ovTL0wwu/qadkyCNT268vAYjE0HnvmsOZ+KNB8+BdQv+QjePeGH6O4eSNSOywakeuyRA0oWVfByt7ai1feVbldvOtZ4Qnx+hHiyOe5brIUiHD1IfgTtR3k4lTL0Ou+da8IyOwZrJ/bKM3SnT90iXfw6jjPgWBgyRq03noJyE5g6ue+Pux5GiwkZs7BB753tQwhM7tKI94hAMUToFQtmKtarYwgDIsAKHDPkglLIlASATM52P8LU4Sr33y3kUWqgxkC6aHvZfjaMGIEUJIgqOtTN1YLOuQ+2wZLJNF684UgZqHp6K+O7ARWAKduyohdS+QSWDJd1WIfNlQhqCoEEPwVH1NJ2yMCXx1Q5JhowMF7z0OQWNG6nwWqw/xNnqreBxOSCGViAjx4payWJHZMdDfFhut/KN28acecNvITOdpgJ0Ku94hBletVJgAe7gkvPqWTnk2QyxssGnEzQ6lTGO/+9QkCSsWZ6WLflTQJVYl7mLaDIWnC6WRvL7NiYAlg/Y0/BpUKaD5u9G2CEQVueFojCcMigDIgg3EpT+f19fU3LUMRPsW53OBhs7W75vwyr5XjYVdRSgxmXDvaw8f0EixHLiFbf+OF4Pk8Zpz03WFn6sYcaOAA1UhDRQJQ7wYoB2mpDhj6ciVphCkONLlSg5kXMA3IIJBo2AKGytA2AQupG50vMC7IDVUg/zox6SKuu/XncPMFzDr1+9JjGM8gx13o87qfjAsVQFVOZEAmZYHBRk+fG3r1mwncMOXDySEfkcazqqYQIfcxqvt1n6+w6okalTKLKIyqdA3W/+pyFLvaMef0i2Al0xi3IBaK9PYGYfAxgspxgGpU6CMonbClT96bLYGJSbcdLzdABsJC1qKPKCHiGdO2ACEsCtR79ANEk35vkEkk8GMCYXUR2ArCsnZq6rHx97fB7evFDmdeAru2YXySgGg3K1YyYeRfbl3tclulHMV8ZxIWMg114HZcLtxQYd2QOlC/uUaXDR3x40EkUCGRs1Ahhs5DmN5DP+RHchbkEZeIXli19di08l68ec4JKGwa/Dq+MYW+XkBkOMf4rSQDVAUPvFGJoybpoOGoL8Habke4WzaDu/7ibF1HwI2+P56E0FW4huGomzmonLsbVOaoDl/msUTBiqRg0adRTaTiBWCI1Tag85m/4vUzj0H2rZfHZnaHAqKyWSyLF3mFke4XMJxsYMi3r7aJN2tsbkVq3ZtoOvtapA89DryQB2V7A8ucwpdExB7gfgmZWp0lVaDifP/lQMRUMkitLfBLyowm0IEEIO1RaY9DEEJdA3reegWvnvk5bPlb/26f2xTE+sLeboA5g5/7oWyjRgDkJTL403+E/dQf0Pj1izH1/14Bu2UeeNcWuVxLrvHXFnyQXQy1b6dwHT5M5Iu+garW0DWOFzUEoadTNQhmrEC9st77bNfUobB5E147+yRsuO/GcYN/Wv2Klwpm1gQkAEkEteD3XAF66XGk912O6Rffg7rjzwLSdSh1d4BKRXC/L4+2CQwVEK0w0y974Dzo+Ufh/VwZDnrdgulVGFIEQcNoWbiSTMlijjd+fDreufQcabtsUxArnF5/Vhay9qvEnjAEIPxsXgLdfD6o9T1YtQ1oOPYMTL/oLtQddTKY7cjFGzyX1zl9E5lBBNHoyaNf9WIgViKTB1FB1QEEuoTQtwO4T2fKKzH6AMlFpQmZRPrnip/j9XNOQm7tO6MThx8EyOZYflucYc39AFv0Ta8mVIyOnLt4+rcAqh3SnZwYINqmrX0HbNnH5Xe7firSex6E9LIDJYWLZgpuR5s8njmxEOfr1UUwjENzUMqo1O8G8PeyyH5upKgV8mHWK3iExCxLLkjt+PvT6HrxMUzb/1DYmbF3E8UY0DgTePYhvyEzGxnMq42j54IXNvy03L0rEsB5u8/8FgOrFZGpwW+QYVj23ptAthfY4wCNG3tKM9LLDkbNXgfDbpgiiaC4udUTv9zrtiF8YInSCCNIZImtI5kAAAr1SURBVAcx5XAeQOM46PDRL2ysEc/1flFKJvoOi+YRU/faH3OOPwOZhR8Ei8VHELWDB9YyD5TtAXv5SdmWfmjzPtCGnvNfLE8AFZ1OfuLidWCo+KqRqiCcfbEi5+hvgX36K2WPpL5eZJ99BF2P/RHZV55Bfv06qbiZEM2OI9O6ksEZguVlulA58P/1iyGVaVEG+fCDS8I9dYWHUuhDrLYO9Yv3wcwjj8fUjyz3sonbGEg0wPjBF8CEQTiSUUvCeuvmF1vK7apMACdsBQEIESZKnPN50JfOh/XRY6oeXli3GtmXn0HPs/+D3tdeQKmtFW7Waw4lCy5E2bRtgwspwZgetrQFTMOQ+caj3x1UtG8RCzy4NEA57FQaqe3monHvgzDtoCNRu/PScZcjoBcfBy4+FbCZF1kdkYtivXVLeQIYXi5gEHeU2sV2wG48H+TYYAd+tuLR8Za5cmv4+Odkj8D8O6+j97Xn0ffWy8j9cxWKbRvkap1SPisrcc1sIXTZW5BIktG/eAx2OiMrdtM7LETtrkvRsHhvpBfsOq5zAmzxh0H7HA48cieQqR/1+1WvCNrqq8c9F+c6QQQJsP2OGPAUu6Ye6Q/uJTcBoslTafNGFLe0obhpPQqbN8Btb0NedAgp5D1OJ2+Frp2qQayhCc6UJiRnzkFsajPiTTMRmzJt659lLOETXwCeesCToqMsoUZIxlQAQUSCCETvnqu8jh/sY8cO6RIicCO2xJwFozrU8QRs/i6gvT4BPHIXkKkbVfd04MWhW72R7NwhP197Huje68b37I8XOPAzsgEWRCubbbEwZERBSQLhYt16IfgNP/Df/zMJlYDtuDuwaKnsgTSasNXZwMFv3Gv4kEiD/fYG0E9Pl0mkSagAIqi258HBOoExzwaOiiTwKnWkXvvbA6DzTgS9/tyYDmFCwW77ACIyKXsVjI4dMAY2gLmpVb8MqGkAW/MWcMHJoHuv/xfA1sgDa9kemLMI6MtvbXfxitRTjQDcUclKmVsq4+m4G34E+vGXQe+/PSEQM2Zg2aCd9/TSxFvzTmJe2QwcuWzgsAbmG4fpWuCJB4CzPw964A6vQHISJLD5OwOO4/cNGPZcD10CEBe53SoNB0Z0A1BTB3S2A5edDfrPE0CvPP2vRQEibC1SvlvagK52LzYyGJg+G0jVegG1Yc458codMSqvC3BRkntHLwYRBvLjBSI1+tJTwBv/AB14JPCp/wCbNXeMBjGyQJvWAv94CvTWy2DrVgOiQkr0AxSGcDoDCB0v8hHLDgKrEK1ktQ0gYQhme4aHC+bjsgJUWx2ck/JhrAhAA5PVRVIN/O6XwJMPgw46EuwTnwNmT4BooHgj6rN/Bf7yW9AbL4G1bwITrpxtee1sde0CB156BnjwLtC0FtDBn4T1yS8C9ZGWczW1Xk5g3ZrhxW2ZxGX/N137UPmSDNsuUiOkgciE1TV4hZJ3Xgt65LfAfocCHz9ahkrHHQhR+9gfQXdfB/bGSxLBcrVvuuKb2zWwLe3AbZeBP/so2Gk/BPvA7sFOIRG3dtVwFVxWJoAE60aexjpSEAZFCCJu0NUJ3HMTsPIe8D32ATvgCLAPLgO2daJH6PLnnwD9/lbg+ce8LujJlOxwGixSGACEIVwb8wjn3JOBsy8HdvOSYd6bUawBAzoVQWj/JKvYUq2yDdDttlHCHvmVqsMFMUliEy+VfvRB4PGVoDnzQcsOANvzAGDnD4ElUmM3ni2bQU+tBD18L9grz3st34Vba/numjuUefOPFaK+vR100TeBC1eAzV7gdTQTbiBVj+lXBItJXFbaXVkCzCm04r00EBsnBKBAcIPwGMTEvLcabPUbwL23gLabC+y2J7DHvsCcBWDTWoBUzcjdV9gkG9cCq98APfUw8PyTQOs6r3xPEJ4kvq1c2y84XIx53XvAlRcAF1wPJl6pK16UPdwVQ3kGzC5UjLlXJoAt9lqwoAZ/fAF5Hmw85W2icmjNamDV68Dv7gAapoBmzgHN3RFszkJAEMfM2WCN0+SLJaR4rtTZSxhn4n2Fov38pg3A++8A774JvPmyJDhs3uh19BRiPmXo9xGTlATU1ANP/QX0yL3A4n2ATRu9BSNDlQDqFS7t9tpKh1QmgGnFVawrLt7gPgGAyTJvxJOeZOjqAjr+Afbycx7nxGJAugYkRGzGt6qFdR2Py/pDybiCw0XJem8nmHgnkeA68Ve8zEG0kheFGYJwhFGWSI8uVwgpJ57lzhuAfzwN9HR7mdShgno72/TiqkpnViSAQrvzDhzeGeeoH3cCoCL4VaTSXjCPISBXALIbgPVrPSLxGxHpZet+raHs+2/7yBZIT5QpHxv1Xn7kEdraNcC7b3vShoZepSWeqOBQJwQuK0BFAni6Jf/OTu/aq5u67cWwJw4JlAfmIVj44vZgOInKfhxTIP99CQln+GNwGbpq3dWvt+SHTgDzn3c7MzZ/jRx78fizAbYG/qUepioI9Z3p5K8JXFY6rqKGb+mIIRm3HsQIL1KZ3MZwE0HVuPWgwGUlqGwEnjUfyNOD+E3rBnCaMdaNCyZhK0EG0dgGfKblQSQY8PnVZa9XmQBkDhqtzHHvRA6n0fjusTQJEZAv5Uy5dwJua+VUUDUv4JH1UkHw5viKeI5OsFy3flIKTBAQi2Mcu7PQzFZYj60fXrPocz57iPybTcafO/G3z92x59/Xn4rUtl8/NwmDgL4Snls67Y6bj1zyXFq4vwJueaPseRUJYP+HvRc4l0Q3r56un1LMPpoRGrf1684nYQAQQa2Y3U49m356yB+ehOPHDv67wlmV3cBXvbdzyVZvSWcVzZ16PnubXwqnSgfJSdi2QJJjQfOd89Ntm1ft+H6b11a/ClQkgFm7BmlWofpZJnY1Oor7oq10NOKTFDAuoUBAk30n2z529ZypjeHA4cqNZUdckQDqpybDP9hU4HXWaYWctSiZpd0qt5aYhG0CLpDL2C/F66zTrBQr1MWTgxpFlZKwSMRMLPmPsdbNLfYJs14t3I2UNe9/UVBtfIMQyHn+zuYFsROaGWu1+ODrEYaW6xPhaZdehGUdA2KrR6up0eQ2yA1+GlrgwrGOkbgZIlMOb3k44Vm3KX4EsoXr7C18r1FeZD4JlaAIuA3WU0jH/8Nem39lOPM0vGy/ILoke4UytBwpfh3ckW9wPAnV51/OeYpfJ3AgcDHc+R8+73o3bEeNdcqaaaXHZ2xg/xnvsxbAoiq9xyZhq8D11lUWUnzVhlmlH8zJWisMXAwLtr7ehwPtte4KqmUf3jSff787TatFHhqlSV0+YlvJy+2LuRVzLOZazPlIvFdgRLS3zYGYy1pf2iX3g/pG3PaB1+yjLMs+tiZrLQaHo98/pMhtMoxQHrRhB6+ZoSVZtNSb4S9y7t7+xk7ufZ0zsfrAJ1JyzkcCRtR8ixUZuEWr81bhZ9bMzJU1eWdJX1v+Y7kk9kz1WXPiRWqx8syLUIg7F5hXdSwJgkEXof4rAwOCVqfCkGPybWeSyxkDT1B7IcnW9aX4mmQOz6aaEg/lE6Xn+Pq+PLdsOccjCSNuv8tuoSQDkHkQe7KtkT+5dg7HnLZY84w1Vsv7OxRnWgmrpeVNe2bn3HxD3bpYHeMsDddNgjsOHHLkNLkToxx10GAzrytuiZVglUqw7RxZlO2aV+iqfz+xZd0u7nqed9e1vB9b3z6br1vTVNo4a42F2d5cQnVinYRJmIRJmIRJmIRJmIRJmIRJ2AoA8P8BiYee2pkW9uAAAAAASUVORK5CYII=;" vertex="1" parent="hZGOe5JVMsw1D21I9RBg-4">
          <mxGeometry width="80" height="80" as="geometry" />
        </mxCell>
        <mxCell id="hZGOe5JVMsw1D21I9RBg-6" value="Swift" style="text;html=1;align=center;verticalAlign=middle;resizable=0;points=[];autosize=1;strokeColor=none;fillColor=none;fontSize=18;fontStyle=1" vertex="1" parent="hZGOe5JVMsw1D21I9RBg-4">
          <mxGeometry x="5" y="80" width="70" height="40" as="geometry" />
        </mxCell>
        <mxCell id="hZGOe5JVMsw1D21I9RBg-7" value="" style="group" vertex="1" connectable="0" parent="1">
          <mxGeometry x="730.88" y="200" width="135" height="120" as="geometry" />
        </mxCell>
        <mxCell id="hZGOe5JVMsw1D21I9RBg-8" value="" style="shape=image;verticalLabelPosition=bottom;labelBackgroundColor=default;verticalAlign=top;aspect=fixed;imageAspect=0;image=data:image/png,iVBORw0KGgoAAAANSUhEUgAAAIAAAACACAYAAADDPmHLAAAACXBIWXMAAAsTAAALEwEAmpwYAAAGn2lUWHRYTUw6Y29tLmFkb2JlLnhtcAAAAAAAPD94cGFja2V0IGJlZ2luPSLvu78iIGlkPSJXNU0wTXBDZWhpSHpyZVN6TlRjemtjOWQiPz4gPHg6eG1wbWV0YSB4bWxuczp4PSJhZG9iZTpuczptZXRhLyIgeDp4bXB0az0iQWRvYmUgWE1QIENvcmUgNy4xLWMwMDAgNzkuYjBmOGJlOTAsIDIwMjEvMTIvMTUtMjE6MjU6MTUgICAgICAgICI+IDxyZGY6UkRGIHhtbG5zOnJkZj0iaHR0cDovL3d3dy53My5vcmcvMTk5OS8wMi8yMi1yZGYtc3ludGF4LW5zIyI+IDxyZGY6RGVzY3JpcHRpb24gcmRmOmFib3V0PSIiIHhtbG5zOnhtcD0iaHR0cDovL25zLmFkb2JlLmNvbS94YXAvMS4wLyIgeG1sbnM6ZGM9Imh0dHA6Ly9wdXJsLm9yZy9kYy9lbGVtZW50cy8xLjEvIiB4bWxuczpwaG90b3Nob3A9Imh0dHA6Ly9ucy5hZG9iZS5jb20vcGhvdG9zaG9wLzEuMC8iIHhtbG5zOnhtcE1NPSJodHRwOi8vbnMuYWRvYmUuY29tL3hhcC8xLjAvbW0vIiB4bWxuczpzdEV2dD0iaHR0cDovL25zLmFkb2JlLmNvbS94YXAvMS4wL3NUeXBlL1Jlc291cmNlRXZlbnQjIiB4bXA6Q3JlYXRvclRvb2w9IkFkb2JlIFBob3Rvc2hvcCAyMy4yIChNYWNpbnRvc2gpIiB4bXA6Q3JlYXRlRGF0ZT0iMjAyMS0wOS0wN1QwNTo1NTozMy0wNzowMCIgeG1wOk1vZGlmeURhdGU9IjIwMjItMDUtMjRUMTE6MDU6MjAtMDc6MDAiIHhtcDpNZXRhZGF0YURhdGU9IjIwMjItMDUtMjRUMTE6MDU6MjAtMDc6MDAiIGRjOmZvcm1hdD0iaW1hZ2UvcG5nIiBwaG90b3Nob3A6Q29sb3JNb2RlPSIzIiB4bXBNTTpJbnN0YW5jZUlEPSJ4bXAuaWlkOjM2Y2EyZjBkLTE2MGEtNDMwNS04ODI1LTE2ZTQ2ODZhOWQ5ZiIgeG1wTU06RG9jdW1lbnRJRD0iYWRvYmU6ZG9jaWQ6cGhvdG9zaG9wOjhiZjZiMmJkLTEyMGUtYTE0ZS1hZWE5LTNkYzhlNmFkNzBkYyIgeG1wTU06T3JpZ2luYWxEb2N1bWVudElEPSJ4bXAuZGlkOjQzNTM0ZDIzLTBkZWEtNDVlNi1hYmVhLTgzNTg4MTczYmVmMSI+IDx4bXBNTTpIaXN0b3J5PiA8cmRmOlNlcT4gPHJkZjpsaSBzdEV2dDphY3Rpb249ImNyZWF0ZWQiIHN0RXZ0Omluc3RhbmNlSUQ9InhtcC5paWQ6NDM1MzRkMjMtMGRlYS00NWU2LWFiZWEtODM1ODgxNzNiZWYxIiBzdEV2dDp3aGVuPSIyMDIxLTA5LTA3VDA1OjU1OjMzLTA3OjAwIiBzdEV2dDpzb2Z0d2FyZUFnZW50PSJBZG9iZSBQaG90b3Nob3AgMjMuMiAoTWFjaW50b3NoKSIvPiA8cmRmOmxpIHN0RXZ0OmFjdGlvbj0ic2F2ZWQiIHN0RXZ0Omluc3RhbmNlSUQ9InhtcC5paWQ6NmY3NTM5MmYtYzgzMS00NDRhLWI2ZmQtNDExZWI5YzA4NGQ4IiBzdEV2dDp3aGVuPSIyMDIyLTA1LTI0VDExOjA1OjE5LTA3OjAwIiBzdEV2dDpzb2Z0d2FyZUFnZW50PSJBZG9iZSBQaG90b3Nob3AgMjMuMiAoTWFjaW50b3NoKSIgc3RFdnQ6Y2hhbmdlZD0iLyIvPiA8cmRmOmxpIHN0RXZ0OmFjdGlvbj0ic2F2ZWQiIHN0RXZ0Omluc3RhbmNlSUQ9InhtcC5paWQ6MzZjYTJmMGQtMTYwYS00MzA1LTg4MjUtMTZlNDY4NmE5ZDlmIiBzdEV2dDp3aGVuPSIyMDIyLTA1LTI0VDExOjA1OjIwLTA3OjAwIiBzdEV2dDpzb2Z0d2FyZUFnZW50PSJBZG9iZSBQaG90b3Nob3AgMjMuMiAoTWFjaW50b3NoKSIgc3RFdnQ6Y2hhbmdlZD0iLyIvPiA8L3JkZjpTZXE+IDwveG1wTU06SGlzdG9yeT4gPC9yZGY6RGVzY3JpcHRpb24+IDwvcmRmOlJERj4gPC94OnhtcG1ldGE+IDw/eHBhY2tldCBlbmQ9InIiPz5D5yMVAAAZo0lEQVR42u2deZwdVZXHv7eWt/Tyenu9b0kghH0ThBGMwSEZQJZRAVEWZwgDGBAhCijoiAooMMAgO7IpiCIgDCCDggw4GZQIsmUhW3en0/veefurqnvnj+7EQOjOq37V6e7knXxO8vl0uupU3furc8/5nXOrhFKKnOy+ouWGIAeAnOQAkJMcAHKyW4ox1n+oZGq7nwm/D6d/kOTbK9GLChGahvD7wLLQqyuQwxG0vAB6XQ1oGkiF7O0N2U2tn7TeX3203dq2r2zv3MPp6K5TyWQQXc/NAIAjwWem9OrKdr2upsloqF1l7rPXMn3enOV6VeUAgAJkaxvKclDSQcWTiEAAORxB2TbJd1aRf/wCzNn1qFT6Y+fOFQBci5SIvCB6Qy0kU1rylWWfT732+pfS76461mnrKFGRKOg6WmEBorgIYfpAqtFb251FgKmD5RRa760Op5YtPwjb+bwozEevrY6a++39in/+EY/7F37mt3pDXdLp7UMNDHlnfaw0MGMPYBgIXWAesA9OW6eZ+P3/fD35/MsXp99bNRul0EqKEfl5CMMApcglnTuEAwiBchxULI4cnWxzn7kdwRMX3h08eeGtWmV5zF7XAgpkNJaVB8gOAIBRVw1CkFr+9jnR+x/7YfrtFY1aqBCtIgyagBzPkCUiRsZQ9g0gB4cx95/XnX/GKT8MHvfZu0TAj7V6A0o6JN9dvROXgNFJNeprkJFo1fANdz2QePl/TxD5eehz9xj9FQVyK6ZzMlFRI2MowmH08jBWe3flwPduvjP4yutfKrpiybnG7LoNVvOmCT9oxkQmXxgG5pwGkn96Y9HwbQ8+bre2F+sN9QjTQEm5rTPLiZdAUKCFyxGlZcSXvTk/tebyVcWXLj4rsOAfnhAr1o7GVJMcA8jhCHZHD4llyy8cuvWBu0FgVFegpJObpJ25Mug6Tk8/yrIInXv61caes64PHnEwRm3VJMUASiGCAQAGfnLP0qG7fnGzXl6KVhQCJzf5U8PiaKhYHLurl/zPHXN95d3XXT3mwxvwZ7kE6COcUfS/Xjpv4M5HbjYqyxGF+ShH5tz9VIlUkJePXqMTff7VqwKffDJS9K+n/kQYRsbp9ZgeYLv1RBOk3l8zv/W4c1/TwyXopcWo3JM/fTxBNI7V2kH903d9IXjUJ57OOgb4EAA0gYzESloWndtu9/QHzcYasHOTP61E17A7exGmwayXHm40qsKt2z6gYgzWVRs76Bz9M+rdu79/+5PJtc1Bs7EWZTtbgtKcThd1JEZNJVb3AF3f/o/nAISmjaSHaiIewHFQoylf7E9v/vPGL379af/cWWDoOfZ2mueLyZXrqX/o+gtDp/zjvcqyEJq+NYbLPAtIpRE+E5Si+aQlvclVTWGzoXqkcJGTaRwPCOzufozKstTsZ+8s1kP5SScSQy8qdLcEoGkgBENPvbwk8vp7Yb2+GukoJCKn01klaFXlxFds8A8+8tzVaNpopuZ2CRj9edOpSztib62u9tVX5Xj9GSRWzwD+WTWxPX93R5EwzTEj9rF5ACGILHv72MjyldW+uiqkzE3+jEoKKsqIvb8+f+jZ184o+eI//nIsrmbcjqDhF/7vQidpowwDhcjpTFPdZOjFP1+o0jauPYBKW0Zk+aoTtHApIzR/rntshiUDaKXFxFY2H2119Rf5GqqGXXmA+OrmwxOtXUGtMD+XY89QFXkBUu09xD9oOca1B4i9s25BeiCCHi7JOvZzlCTsyyMlHSJOCj3nTXZSSqhjRVPEVjZ/pnjRkc+4AkBiQ/v+oIPSyJb5CWgmy4e72DuvjALNT8yx0ESugLQzlgHh85Ha2DXPtQdIdfQ3imBwtCSQ3WTVB4s5f9V/U2D4efGQr/BupAtHqVwNcWc4gYICUh39de4B0DVYrYUKUB64ax2DSn8hv+1ZzV1tb/FvtYfyTqQLTQhEDgaTKqIgj3R/pMw1ANKD0RKRF0Sq7CcoraDMzAPgog9eYFaglE8XN7Ay1oMhcvHApIrpw46n88f0EGMGbpbjU7ruSTQqAUv9nY780vtP0JQcZnawlLSSuYh9MlUTOFJp7nkANKk8WP8BlNJQ23iSqJPitPce59VPLKbSF6I7HUHPeYJJCwRBqAkAQHhW9pVqhJnaVtbF+zhn5VM8deBZxBybiJ1Cz2UGkxQICPdMoPQwVx/rXH8cWM/Stb/jP+edwqpYN7ZyckHh5CDAPQCU8m4ilBJjOpMHO/5KY6CUSxvm8260A22SACDYTftYFCM7tNwDwMNr2MEe0O83/Z49g+UsKpvHiminp5mBGp38UjOfiJMiKa1JA9m0BcA4Y6+NFwN4pRKdHdE+i1c/zspoN3PyKkirkcYTL2xrQicpHV4dbMKv+TCFibMbVgbdxwDKwxhgnCVgiySlxdkrf8nvD7mIKl8xXalhdJH9+wN0NMJmiDOaHmFh6Tzumnc678c6RplIsZt4AOHeA3jdqpQJ8bspNchXVz1KSM+j0MjHVtlfh4MgoAcoMYL8uvst7u/4C/vk147+P7tNq9iUAmBk8jN72v66uYVvrX+axkA5pmbieACCtFKU+0aaIq9Y/zTP9q5gXl6NJwCb6QAwxiNvvBLnI0TQjuTx7jeZFQhzaf1C3o+1b90iPdEUVEkNS/6diTxv9S/4zQFf45OhWayOdWIIPbcEbD9wXqpwnYLdsPFFnup9h73yarCUyvoaPir/svIBPoj1MCevirSSHt/v9FP3WYASnupE5JI1v+TdSBtzApVYUmZ3DR85d1ymOXvVffSmojT4w9mff5rrlANgIiCQSBavvp8BK0GtL4wtVRa2t7ffm45w1sp7SUtJja80q/PvegBA80ylEhNew/usKOd/8CB+3U+xWYit3F/beEtQS7KXxasfwK8FKDOLsJTy9N6ni7qPAZTwULWsaNgVsU0sXfsoFWYpAc0/khm4sj9+kPdOtIUlax6m2AgRMgpGYg5P73/qdYp5AI1sG8BeHHiHmzY+x5xgDaDjuE1Fd7AEvTa0kis3PEaNr5ygFtzlUsSJlYM9qwYKTwoxP+t8iYZgOadWHMXq2CY0sWNWX2VIQgE827ecErOAqxtPZW2iE0vZu0jdYEJUsIcAyCIT+Kh8r+kxGgNVHFgwi3Xxjh3m8ALh6l5+3vkKZUaIC2qOY1V8Ew4znDLeAQ+w8wDg4T1dsvY+frXfldT6y2lL9o1bM9gCADf2b9n0DCGjgNPKP83qeOsuDYCdUg0cMePdIA7ZUb6+9m40DErNIhyldlCNdJ+FXNP8KC8NvM1ewYYdnn/6VwKnOg1E87wZY32igys2PEDYLCWoB5E7uOaJyNL19/HXyDrmBOuwZ3h6OKVEkKPEuG5oovKnofe4sfU3NPhrEcpEKjJmAjMloi5a+1PWxTtpDNRgSbk1ntnliSAvc1DlcQywrTzW/TKPdb/MnsF6HDkCto/PgycGwKRM8/V1t9GXjlLjq9wKgt2AB9C8U6UxmRvBbmj9Ja8Nvc+sUVe9/TXoWbW49VnDXLzuFtJKUuELjxantBmlE4gBvFM3PEChns9BBXu5nqQrm+6gNdlDjb8KSznbbUzJFoAbk10sXX8bPhGgxCjCnmEbWqaYCs48BkjIJEvrzubYkiNcTVBKprl8w0+xlaTMKMWS29C50hvvsyK2gaua7qTELKFAL8CWKrcEZKqZPoG2cog6Ka6d8w3KzRJXE7Qp1cW3N9xOoVFEnlGwDZ3rXXPL65vf5Uct91Ppq8Cvb6GMd8UlwOtI1MUgd6UHCIg8rp19qWvH/XZ0NTe1PkSNWYUhfCPxh8cZyIsDy7i97VfU++pGbZDrBxhP3UbhOgYbE13snbcn32640PUEPd//Ko90Pcdsf8M2APQWBL/ueYGHu55htr8RofRpnx66p4I93Rqmu5oAhQZCZ32ijRNKP8u6RCtP9r7gyua9nb+iPlDL0aHD6LMGJiX7+Fnn45QYJXyu7BjWxZsRYuLp5uSWgqZFR5AbwIzsS3CUoDnZyYXVZ/OJggNc3/gPW25jQ6KNWn8dtpqct5vfuOkeXhv6K7MDs7cGhbsGETQF+wK2L+FqxGSKATvCdxuXUuUrdzU5aWVxdctNxKVF2Axn9KQcWLCvaxBc03IL78bW0BBoxFJyV9kX4F0E6rhsCFHbHCsw6LWGEcLk+41X4hemq8npSnfzveYbMvIACsVJpcfxvcbLXVPGVzf/mNZUJ3X++lEQzPAsQCpv1V35+MMq0NmU7GRWYBbfrL9kAqnbcv6y+c2Mfrc11cEZ5adyavgUVzYSMsF3mn7EoLWZSrMaSzqej+FkjP/OyQKk5ioGUFv6CLc5h8BgQ6KV+UWf5vTyL0xawJSWNi3JdhZX/QvHlS50deyAPch3W67FVopSI4w9jVrNp7QcrCbQE7h9OXPk343Jdr5a+VWOKDx8kiJmjYSTpiPdw8XVS5hfdLRLMqqN77dcS0DLo8goGe0l2M3LwW6JGPWRp3/rOZRGUlr0pge4rG4p9f66SYEA6EScBD3WAJfVLuXggoNdnWFNYi03brqFYj1MUCsYAcFM8wDOaB3fC5UuiZgtx3zcuZTS6beHkUrj2/VX49f8nk6/ROAoDZTOkB1lyI7wnbqrmRec5+o8b0Te4Kcdt1Np1mKKEcrYyzF1q1O6BDi4o2MVo5M9xvk0DNpTXVSadXyj5lueAkBtY1eg028NkZA2V9VfQ52v3tW5/jj0Mg91P0yNrwEd3w67lqbXxhDP9wXgCgBSaOOeTxMmLalWjgzN58vl53gHgA/du4YQJj1WLwidf2+8ngqz0tX5nu5/gqf6nqQuMBvQp+ydBNMgBhDunkKpZXTejclWvhg+k6NCCzwCwPYZiIZJZ6qHgFbAVfXXUaAXujrnIz0P8IeBF2nwz/37kjj9mUCvyQjhYh3OtMSsk1I2XVYvF1R/k0b/HG8A8DG2NGHSluqkzKziqvof4xcBV+e9p+tW3tj8Z+r8e2ArhTP9iSDvmhFGgiqXbjjjRhOdYTtCStpcVnsNeVp+1jGA5ONtaRi0pjZR79+TK+qvd71r6Ob2a1gTX0Wdbw9sJad3Qwhbung80IksAW7OryuD7nQ3JXoFl9T8uwdBwNi2NKXTmtzI3oEDuazmh64p4xvbvktbahPVRsMIPe3hOI+rrtNAD3VLX56bOXBrQ6CzKbWR/fM+yZnlS7JIA8FRY9uRo0Wq5mQThxQcxYVV33FJGce4of1Khp3NhI1aLOV4OtZj6QSCQM0zlVJztS9AqdFOYreKTmuqheNLvsynQ8dPEAIZ2kajJdnM0aHjObv8G64sDNn9/Ef7d5BKUKRXjr6YQptUneJqoDsiSI6+XNJ936GOpSQd6XbOLl/KnMDeEwwC9YxsOQhakk0cW3wqXyg7z5Wd9nQLt3ZchV/Lp8AoxUZNt7ZwL/en6a54AJnVPjidqBMjLpMsqbqOQr1oQjxApnseLaVoTW3kpNJzWVh0uitb65Lvc1fXDwjpFQRE4aTuQZzSLEBOIAh0srAlMOizeglqJVxQeZ3rLMBxdV8aaWXTnmrl9PJLOKrwc67svRv7P37efSNhsx5DBCfw9pMZ0BbuuGYCs7cphEFHupW98g7jK+HLXS0ByrV71UnIJD1WF2dXXMXB+Z9xBYJlked5sv8eqsw9EJijbz/ZOUvA2E2h0sP3A0h3FUGlRo7J7hpGvE5rson5odNoTzfz2uYnM2hGGelfcG/bIGrHQPWxuOJH3NG1lDWJNzM++sXBX5AnillUdBZt6bXIre85z57bnlBTKKM1eG9Ud90T6JVdR0m6rTZOK/smcwOHZgQcOUF7GiYRe5ioE+P8ipto9LvrL/ztwE9ZFnmWGt+8bfoovZqDKS0GuW8GkUrzyK5O3Imz2dnMuRU/psSo2CEAVBb2hDAZtPuwlM3XKm+j0mx0de+P9l3Lu/FlVJlzcba+IXUqmkK9pIJdLgFbjvEuADIYsHoxyGdx+S3jvlJGbll+sgpCTfqsblAmSyrvptSodgWCn3VfTlNyBZXmXM+2o095FuAqDRyHj89mUrrSrdSa+3BG6TU7qAZ6Y6/Haicgirig4k7ytczTUYnNfT2X0p3eRNiYPdpgupMBsDNz0Z1hWyFA6LRZ6zms4GQWhM4Zh4b26mslJl32RoqNGs6vvBufiwpiQka4t+ciYjJCiVGHPfq+sp3GAzijH1vwRt2mgV7bF1tTK0cJOq2NnFC8lL2DR48R+2ie2QSTjnQzleY8zq2409Ubx4acbu7ruRiJRqFejaVkFtcxlbUAlzt0J5cT10k6SYbtAb5cegNlRv12VVCvbQp8dKQ2MNt3OGeH/9NVPNBtrefh3kvxUUieVoYzobrBFHcE4ZYJRIzZGeyFCgw2O30odM4pux1T+D+cBUySzfb0WvYLLOT00h+7AkFz6i0e67+CkFZNQISQE+gynvqmUJcAcCa5SVJg0mu1ETb35Iul129jXcdBnyS7Ou3WWg7J+zwnFF/pCgSrEq/w1MA1FBmN6CLousHUPRPo4UsVRj4Z4+b3t32vwGTJiFfqSK/ngMBJdBau5bXIvaRkcnTZEpNiU6LoSK/jqPzFJJ0Yr0TuyPjoN+NPkqeVclzRFXRaq3HI4EurarwvB4/7fgDvBkATPhJyOOPft5UNwvT0GsYmfRRddhOfDV3G2uT/MmC3ue5hdGvTRtJlb2BB6BKSKs7r0QczPvpP0ftIqTgLQhcRcwaQOBlBfQIewLsXRMScCNXmQSRkZHz2eTRXCIhSEk7c02sYT9IqzaDdw4nFP2LQbmPI6Z5022ll0Wu1ckzhZSgFXdaqHYzNluwszab0e/RYLYT0amwZzcoDCDWGb76g/IXNQKEXNyuVTVArxp9hw2ZM9mOpFBo772teEpugKEIInbgzgCaMSbepcNDxUahXoFw0zVkqSdTpQ89kq7wCobH5np4TilzHAMKrL8gLk6RKkHKSGQ6MBAxXfYTZi0lCxRFKjC4/O0MMbCRDTjfC5St5NOEfrRhmFu1MJAjUNCE8+4i02ubvTAO0qRC1wyGbLJtuBzqzMRKAHCegGRMAus9IWwknXzN2oy9t74IiJeiGkK4BUBD2D7StipbkFxu5UZzBko5LimvMmGsAlNYF2levGNwjDzM3ijNYYimb+vLCPtcAKKvPb02gRtMhlRvJGSmCCJKyhrxNrgFQv3/Be06WH33MyRRPv4A0ULVn/mrXANj7H4pfDeEnnQAjoOVGcwaKshQBTPY6svg11wCYdXDhW1W1BdGO9nhBsV/PjeYMlGjMoTyUx6wDCl51DQDDFPKgRWXPv//Q8BnFIoCUuThgJommCQaxOPTIsleKK31R1wBQwPwzK+964qFNZ1hJ0Hy5ZWAmiZNW2Ggcc3b13f78cb6rOFYtQEqFpgku3v/tlr+tHGysDQVROS8wM4I/DXo3p5hVkz90f/PhJbo5Qut/rKcYE0H2yGSf/M3aH0SQSEvsUh9T3pVV2Rr9OCy6oPpGwyfY3Ge59wCpuMT0a2g6LJ7zdtt7zZtrGwqCODkvML3XfiHojiWpLQ1Gf95yaLEvqDmJiENBieHOA+imwHFGJvuie+ecm0CRTCmUEDP6M6q7utoW9GOz5PY5XwsW6o6SEAyNHQNoY0eRoOugpOLQhUV/OOvU2mfXWVF0lSOFpqsYQrA+HeOUz1T9ecFXyh6VcoQMYiINIdv+WAhIJ2TwjNlvtW/sjpfMKsjDzi0F00p0TdARTVKUb9pPtBxWGwobPRktGWMGgZbaqnZa4QtqiZue3/dYgaAvmkbXcp5gOuX8m+M2CRyu+/Xex4fCRk8i6pCIyq3qGgDbpYUO7HFY/t9u+/X+p0ewGYpaaDkQTIugLx536JdpfnDTvIsOO7H45fhmByulsFJyq7oGgGGKD+mWPPKoL5U+8W9LGs8bxGIw5wmm3O1HYjZ9MsWJx1decfKlVXdtid/8QfEhdQ0ApT6sWyQy6HD0aaUPfPeGuWcCdESTaELk6oU7e/KFoCuaIonD1741++JP/XPpTe3r/95zqeSHNeslYNvYoKMpyaLFFY/95Jl9j6yrDrQ1xWKk0wpN5GCwM1y+Yyk2xGKEi83B6x7b559Ouqjyzp62NHbKfWDuGgBCjMQDLSvi7De/8I1bX9p/nxNPqnys207SEUuCAzkcTAK9K0b6+7tiSdqsBIsWVTx3918O2ueIk0v+sHFVAttSiAmUa7QJX4wGbWuSGAEtesXP5p5586/2+/z+BxSu2JiK0xFLIS2VA4JHE69s6IqlaErE2XNu/vobf77vmdc+tffJoXKzu3VVfKT3f4JjnVXHp24IBrvSDBuCBWeEnzl8UfEzf/xN37m/u7/7knfe2nxQwnIowqRQMzD9ItdYlKkosNOKqGMzhIUPjf33K1xzwnmVdyz6SvmdRRWmaluTIJ1U6EZ245p1y6+mC6SjaF+bwBfUOPnCqgdPOr/qwdd/N7Dwz88NnvbOK8PHt21I1g0l0ijAj0YQnTyh48/TPNt3MJOf8HRCEpMOCRzSo9s9ijCpbQh0Hbeg4vefOqX0yaNPLH1e9wkGuiy6mpLYaYWmi6xrM571fGu6IBWXdKxPEq71cdRJpS8ddVLpS+mk1Ne/Ezvkg+XRT7WsjB/YuzE9a6jbKh/qtspiQ05oyyDsruJIRWG5GW2syusrqjD6wvX+jY37BVfMO6Lg9T0OyP9bfkhPATgOdDensW2J6fNuwMakgnOym2QVuSHIASAnOQDkJAeAnOQAkJPdT/4fE3UGVAi4pGwAAAAASUVORK5CYII=;" vertex="1" parent="hZGOe5JVMsw1D21I9RBg-7">
          <mxGeometry x="25" width="80" height="80" as="geometry" />
        </mxCell>
        <mxCell id="hZGOe5JVMsw1D21I9RBg-9" value="Metal Shader" style="text;html=1;align=center;verticalAlign=middle;resizable=0;points=[];autosize=1;strokeColor=none;fillColor=none;fontSize=18;fontStyle=1" vertex="1" parent="hZGOe5JVMsw1D21I9RBg-7">
          <mxGeometry x="-5" y="80" width="140" height="40" as="geometry" />
        </mxCell>
        <mxCell id="hZGOe5JVMsw1D21I9RBg-10" value="" style="rounded=0;whiteSpace=wrap;html=1;strokeColor=none;fillColor=none;" vertex="1" parent="1">
          <mxGeometry x="880" width="40" height="40" as="geometry" />
        </mxCell>
        <mxCell id="hZGOe5JVMsw1D21I9RBg-11" style="edgeStyle=orthogonalEdgeStyle;rounded=0;orthogonalLoop=1;jettySize=auto;html=1;" edge="1" parent="1" source="hZGOe5JVMsw1D21I9RBg-18" target="hZGOe5JVMsw1D21I9RBg-8">
          <mxGeometry relative="1" as="geometry" />
        </mxCell>
        <mxCell id="hZGOe5JVMsw1D21I9RBg-12" value="#include" style="edgeLabel;html=1;align=center;verticalAlign=middle;resizable=0;points=[];fontStyle=1;fontSize=16;labelBackgroundColor=none;" vertex="1" connectable="0" parent="hZGOe5JVMsw1D21I9RBg-11">
          <mxGeometry x="-0.4051" y="3" relative="1" as="geometry">
            <mxPoint x="38" y="29" as="offset" />
          </mxGeometry>
        </mxCell>
        <mxCell id="hZGOe5JVMsw1D21I9RBg-13" style="edgeStyle=orthogonalEdgeStyle;rounded=0;orthogonalLoop=1;jettySize=auto;html=1;strokeWidth=1;exitX=0;exitY=0.5;exitDx=0;exitDy=0;exitPerimeter=0;entryX=1;entryY=0.5;entryDx=0;entryDy=0;entryPerimeter=0;" edge="1" parent="1" source="hZGOe5JVMsw1D21I9RBg-17" target="hZGOe5JVMsw1D21I9RBg-21">
          <mxGeometry relative="1" as="geometry">
            <mxPoint x="763.25" y="50" as="sourcePoint" />
            <mxPoint x="583" y="50" as="targetPoint" />
          </mxGeometry>
        </mxCell>
        <mxCell id="hZGOe5JVMsw1D21I9RBg-14" value="#include" style="edgeLabel;html=1;align=center;verticalAlign=middle;resizable=0;points=[];fontSize=16;labelBackgroundColor=none;fontStyle=1" vertex="1" connectable="0" parent="hZGOe5JVMsw1D21I9RBg-13">
          <mxGeometry x="-0.3185" relative="1" as="geometry">
            <mxPoint x="-72" y="-20" as="offset" />
          </mxGeometry>
        </mxCell>
        <mxCell id="hZGOe5JVMsw1D21I9RBg-15" value="Xcode" style="text;html=1;align=center;verticalAlign=middle;resizable=0;points=[];autosize=1;strokeColor=none;fillColor=none;fontStyle=1;fontSize=20;shadow=0;fontColor=#005DBA;" vertex="1" parent="1">
          <mxGeometry x="45" y="45" width="80" height="40" as="geometry" />
        </mxCell>
        <mxCell id="hZGOe5JVMsw1D21I9RBg-16" value="" style="group" vertex="1" connectable="0" parent="1">
          <mxGeometry x="740.25" y="12.5" width="110" height="117.5" as="geometry" />
        </mxCell>
        <mxCell id="hZGOe5JVMsw1D21I9RBg-17" value="" style="sketch=0;aspect=fixed;pointerEvents=1;shadow=0;dashed=0;html=1;strokeColor=none;labelPosition=center;verticalLabelPosition=bottom;verticalAlign=top;align=center;fillColor=#808080;shape=mxgraph.azure.code_file" vertex="1" parent="hZGOe5JVMsw1D21I9RBg-16">
          <mxGeometry x="19.75" width="70.5" height="75" as="geometry" />
        </mxCell>
        <mxCell id="hZGOe5JVMsw1D21I9RBg-18" value="header file" style="text;html=1;align=center;verticalAlign=middle;resizable=0;points=[];autosize=1;strokeColor=none;fillColor=none;fontSize=18;fontStyle=1" vertex="1" parent="hZGOe5JVMsw1D21I9RBg-16">
          <mxGeometry y="77.5" width="110" height="40" as="geometry" />
        </mxCell>
        <mxCell id="hZGOe5JVMsw1D21I9RBg-19" value="" style="group" vertex="1" connectable="0" parent="1">
          <mxGeometry x="436" y="12.5" width="230" height="117.5" as="geometry" />
        </mxCell>
        <mxCell id="hZGOe5JVMsw1D21I9RBg-20" value="Metal-Bridging-Header.h" style="text;html=1;align=center;verticalAlign=middle;resizable=0;points=[];autosize=1;strokeColor=none;fillColor=none;fontSize=18;fontStyle=1" vertex="1" parent="hZGOe5JVMsw1D21I9RBg-19">
          <mxGeometry y="77.5" width="230" height="40" as="geometry" />
        </mxCell>
        <mxCell id="hZGOe5JVMsw1D21I9RBg-21" value="" style="sketch=0;aspect=fixed;pointerEvents=1;shadow=0;dashed=0;html=1;strokeColor=none;labelPosition=center;verticalLabelPosition=bottom;verticalAlign=top;align=center;fillColor=#808080;shape=mxgraph.azure.code_file" vertex="1" parent="hZGOe5JVMsw1D21I9RBg-19">
          <mxGeometry x="79.75" width="70.5" height="75" as="geometry" />
        </mxCell>
      </root>
    </mxGraphModel>
  </diagram>
</mxfile>
